<svg xmlns="http://www.w3.org/2000/svg" viewBox="0 0 553.84 1785.6"><defs><style>.cls-1{fill:#6b051b;}.cls-2{fill:#3a0309;}.cls-3{fill:#262825;}.cls-4{fill:#1d1c1e;}.cls-5{fill:#696765;}.cls-6{fill:none;stroke:#eee6e2;stroke-miterlimit:10;stroke-width:2px;}.cls-7{fill:#070405;}</style></defs><g id="Слой_2" data-name="Слой 2"><g id="Слой_2-2" data-name="Слой 2"><path class="cls-1" d="M304.61,266.27l3.45,10c2.7,8.13,4.64,13.55-1.94,18.58-18.58,10.84-20.9,31.75-20.9,31.75l31,861.29c42.07,95,111.78,31.55,128.39,2.45,20.26-38.58,20.26-65.16,20.26-78.71s.39-19.74,5.42-24.39c10.84-6.19,15.1-.77,21.93,9.55,32,64,6.2,141.42-22.19,198.71s13.42,108.77,42.32,162.32C597,1621.69,526,1702.73,526,1702.73c-26.58,41.29-74.1,55.64-99.87,65.54-18.06,8.26-174.45,26.84-262.19,11.36-82-20-120.26-45.94-151.23-113.55s-1-171.87,43.87-275.61c47.49-98.58,6.19-167.23-7.22-201.29s-30.46-72.78-30.46-109.42c-.51-85.68,51.62-108.39,51.62-108.39s20.64,0,18.06,16c-6.19,34.07-4.64,33.55-4.64,63,6.19,54.19,42.32,116.64,85.67,111.48s41.29-41.29,41.29-41.29-3.09-710.71-3.61-760.26,2.07-61.93-48.83-97.54c31.17-109.94.57-209,.57-209-1.29-3.87,0-3.87,0-3.87s5.68,3.62,16.78,2.07,25.29-41,28.9-49S215,6.21,215,6.21l16.27,47.23,7-1.3s1.29-8.25,4.13-11.87c5.16-1.54,11.35-3.61,11.35-3.61s15.49,8,7.74,29.94l-10.06,2.84s-6.45-4.65-8.65-8.65c-1.8.52-7.48,4.22-7.48,4.22h0l9.77,28.37,6.86-1.28s1.29-8.25,4.13-11.87c5.16-1.55,11.36-3.61,11.36-3.61s15.48,8,7.74,29.93l-10.07,2.84s-6.45-4.64-8.64-8.64c-1.81.51-7.4,4.17-7.4,4.17l9.24,26.84,6.54-1.22s1.29-8.26,4.13-11.87c5.16-1.55,11.35-3.61,11.35-3.61s15.49,8,7.74,29.93L278,147.83s-6.45-4.64-8.65-8.64c-1.8.51-7.12,4-7.12,4l10.66,30.94,6.73-1.25s1.29-8.26,4.13-11.88c5.16-1.54,11.36-3.61,11.36-3.61s15.48,8,7.74,29.94l-10.07,2.84s-6.45-4.65-8.64-8.65c-1.81.52-7.29,4.1-7.29,4.1L286,212.33l7.33-1.44s1.29-8.26,4.13-11.87c5.16-1.55,11.35-3.61,11.35-3.61s15.49,8,7.74,29.93l-10.06,2.84s-6.45-4.64-8.65-8.64c-1.8.51-7.82,4.46-7.82,4.46l10.55,30.64,7.15-1.31s1.29-8.26,4.13-11.87c5.16-1.55,11.35-3.61,11.35-3.61s15.49,8,7.74,29.93l-10.06,2.84s-6.45-4.64-8.65-8.64C310.46,262.49,304.61,266.27,304.61,266.27Z"/><path class="cls-2" d="M526,1703.18s33.23-37.94,27.09-114.39c-12.38-84.41-32-102.35-83.09-181.3-48-79.48-43.48-80.26-.51-164.64s7.63-157.7,7.63-157.7a15,15,0,0,0-4.06,1.15c21.12,61.77-5.64,126.09-5.64,126.09s-32.77,73.81-82.58,65.29c-42.72-7.3-62.66-67.81-67.46-84.87l2.43,65.52s1.23,5.23-8.26,5.16l-93.93,3.61s-7,0-7.23-15c0-4.37-.16-51.55-.4-122.26a44.18,44.18,0,0,1-1.24,4.5c-2.07,34.37-22.23,75.95-37.71,82.92-43.75,15.48-68.91-39.87-102.2-104.52S82.66,974.89,82.66,974.89h0A20.52,20.52,0,0,0,78,973s-45.19,74.78-25.57,134.65c21.16,80.52,70.58,128.49,74.83,193.55,4.65,71-18.53,141.73-33.54,199.22-15.23,58.32-5.17,265.28,183.17,285.21,70.19-2.18,137.72-11.61,149.21-16.87C451.89,1758.83,499.41,1744.47,526,1703.18Z"/><path class="cls-3" d="M217.61,1267.1l93.93-3.61c9.49.07,8.26-5.16,8.26-5.16l-2.43-65.52L286,348.91H207.19s1.93,534,2.79,780.93c.24,70.74.4,117.93.4,122.3C210.61,1267.1,217.61,1267.1,217.61,1267.1Z"/></g><g id="Слой_3" data-name="Слой 3"><path class="cls-4" d="M215,1430.72l103.22-2.33a15.75,15.75,0,0,1,12.13,11.88c3,11.32-7.09,19.09-11.61,19.35-3.39.19-102.19,2.84-102.19,2.84a18.13,18.13,0,0,1-13.42-15.74C203.09,1435.1,213.15,1430.76,215,1430.72Z"/><circle class="cls-5" cx="220.12" cy="1447.49" r="4.52"/><circle class="cls-5" cx="315.47" cy="1444.3" r="4.52"/><circle class="cls-5" cx="296.51" cy="1444.3" r="4.52"/><circle class="cls-5" cx="276.96" cy="1445.43" r="4.52"/><circle class="cls-5" cx="257.31" cy="1446.23" r="4.52"/><circle class="cls-5" cx="238.34" cy="1447.07" r="4.52"/><path class="cls-4" d="M216.31,1463.65l103.22-2.32a15.73,15.73,0,0,1,12.13,11.87c3,11.32-7.09,19.1-11.61,19.36-3.39.19-102.19,2.83-102.19,2.83a18.14,18.14,0,0,1-13.42-15.74C204.44,1468,214.5,1463.69,216.31,1463.65Z"/><circle class="cls-5" cx="221.47" cy="1480.43" r="4.52"/><circle class="cls-5" cx="316.82" cy="1477.23" r="4.52"/><circle class="cls-5" cx="297.86" cy="1477.23" r="4.52"/><circle class="cls-5" cx="278.31" cy="1478.36" r="4.52"/><circle class="cls-5" cx="258.66" cy="1479.17" r="4.52"/><circle class="cls-5" cx="239.7" cy="1480.01" r="4.52"/><path class="cls-4" d="M210.49,1271.06l103.23-2.33a15.73,15.73,0,0,1,12.13,11.87c3,11.33-7.1,19.1-11.62,19.36-3.38.19-102.19,2.84-102.19,2.84a18.14,18.14,0,0,1-13.42-15.74C198.62,1275.44,208.68,1271.1,210.49,1271.06Z"/><circle class="cls-5" cx="215.65" cy="1287.83" r="4.52"/><circle class="cls-5" cx="311.01" cy="1284.64" r="4.52"/><circle class="cls-5" cx="292.04" cy="1284.64" r="4.52"/><circle class="cls-5" cx="272.49" cy="1285.77" r="4.52"/><circle class="cls-5" cx="252.85" cy="1286.57" r="4.52"/><circle class="cls-5" cx="233.88" cy="1287.41" r="4.52"/><path class="cls-4" d="M211.84,1304l103.23-2.32a15.73,15.73,0,0,1,12.13,11.87c3,11.32-7.1,19.1-11.61,19.35-3.39.2-102.2,2.84-102.2,2.84A18.14,18.14,0,0,1,200,1320C200,1308.38,210,1304,211.84,1304Z"/><circle class="cls-5" cx="217.01" cy="1320.77" r="4.52"/><circle class="cls-5" cx="312.36" cy="1317.57" r="4.52"/><circle class="cls-5" cx="293.39" cy="1317.57" r="4.52"/><circle class="cls-5" cx="273.84" cy="1318.7" r="4.52"/><circle class="cls-5" cx="254.2" cy="1319.51" r="4.52"/><circle class="cls-5" cx="235.23" cy="1320.35" r="4.52"/></g><g id="Слой_4" data-name="Слой 4"><line class="cls-6" x1="219.65" y1="1624.09" x2="213.35" y2="347.23"/><line class="cls-6" x1="238.87" y1="1624.09" x2="227.41" y2="349.15"/><line class="cls-6" x1="258.84" y1="1624.09" x2="240.9" y2="349.09"/><line class="cls-6" x1="279.87" y1="1622.15" x2="253.87" y2="349.04"/><line class="cls-6" x1="299.41" y1="1622.15" x2="266.87" y2="349.23"/><line class="cls-6" x1="319.73" y1="1622.15" x2="279.87" y2="348.93"/><circle class="cls-7" cx="219.65" cy="1624.09" r="7.25"/><circle class="cls-7" cx="238.87" cy="1624.09" r="7.25"/><circle class="cls-7" cx="279.87" cy="1622.15" r="7.25"/><circle class="cls-7" cx="299.41" cy="1622.15" r="7.25"/><circle class="cls-7" cx="258.84" cy="1624.09" r="7.25"/><circle class="cls-7" cx="319.73" cy="1622.15" r="7.25"/><path class="cls-7" d="M285.35,348.91l-77.51.32a.65.65,0,0,1-.65-.65l-.74-24a.66.66,0,0,1,.65-.66l78-.44a.66.66,0,0,1,.65.66l.27,24.14A.66.66,0,0,1,285.35,348.91Z"/></g></g></svg>