<svg xmlns="http://www.w3.org/2000/svg" width="70" viewBox="0 0 553.84 1785.6">
	<defs>
		<style>
			.cls-1{fill:#535156;}.cls-2{fill:#16171b;}.cls-3{fill:#262825;}
		</style>
	</defs>
	<g>
		<path class="cls-1" d="M1460.9-48l3.45,10c2.71,8.13,4.65,13.55-1.93,18.58-18.58,10.84-20.91,31.74-20.91,31.74l31,861.29c42.06,95,111.77,31.55,128.39,2.46,20.26-38.59,20.26-65.17,20.26-78.71s.38-19.75,5.41-24.39c10.84-6.19,15.1-.78,21.94,9.55,32,64,6.19,141.42-22.19,198.71s13.42,108.77,42.32,162.32c84.64,163.87,13.68,244.9,13.68,244.9-26.58,41.29-74.11,55.64-99.87,65.55-18.07,8.26-174.46,26.84-262.2,11.36-82-20-120.26-45.94-151.22-113.55s-1-171.87,43.87-275.62c47.48-98.58,6.19-167.22-7.23-201.29s-30.45-72.77-30.45-109.42c-.52-85.67,51.61-108.38,51.61-108.38s20.65,0,18.07,16c-6.2,34.06-4.65,33.55-4.65,63,6.2,54.19,42.32,116.64,85.68,111.48s41.29-41.29,41.29-41.29-3.1-710.71-3.61-760.26,2.06-61.93-48.83-97.55c31.16-109.93.57-209,.57-209-1.29-3.87,0-3.87,0-3.87s5.68,3.61,16.77,2.06,25.29-41,28.91-49,10.32,3.36,10.32,3.36l16.27,47.23,7-1.3s1.3-8.26,4.13-11.87c5.17-1.55,11.36-3.61,11.36-3.61s15.48,8,7.74,29.93l-10.06,2.84s-6.46-4.64-8.65-8.64c-1.81.51-7.48,4.22-7.48,4.22h0l9.77,28.37,6.86-1.28s1.29-8.26,4.13-11.87c5.16-1.55,11.35-3.61,11.35-3.61s15.49,8,7.74,29.93l-10.06,2.84s-6.45-4.64-8.65-8.64c-1.8.51-7.4,4.16-7.4,4.16l9.25,26.84,6.53-1.21s1.29-8.26,4.13-11.87c5.16-1.55,11.36-3.62,11.36-3.62s15.48,8,7.74,29.94l-10.07,2.84s-6.45-4.65-8.64-8.65c-1.81.52-7.12,4-7.12,4l10.66,30.94,6.73-1.26s1.29-8.26,4.13-11.87c5.16-1.55,11.35-3.61,11.35-3.61s15.49,8,7.74,29.93l-10.06,2.84s-6.45-4.64-8.65-8.64c-1.8.51-7.29,4.09-7.29,4.09l9.21,26.73,7.33-1.43s1.29-8.26,4.13-11.87c5.16-1.55,11.36-3.62,11.36-3.62s15.48,8,7.74,29.94L1462.82-86s-6.46-4.65-8.65-8.65c-1.81.52-7.83,4.47-7.83,4.47l10.56,30.64L1464-60.9s1.3-8.26,4.13-11.87c5.17-1.55,11.36-3.61,11.36-3.61s15.48,8,7.74,29.93l-10.06,2.84s-6.46-4.65-8.65-8.65C1466.75-51.74,1460.9-48,1460.9-48Z" transform="translate(-1156.3 314.23)" />
		<path class="cls-2" d="M1682.29,1389s33.22-37.94,27.09-114.39c-12.39-84.41-32-102.35-83.09-181.3-48-79.49-43.48-80.26-.52-164.65s7.64-157.69,7.64-157.69a14.69,14.69,0,0,0-4.07,1.15c21.12,61.77-5.63,126.09-5.63,126.09s-32.77,73.81-82.58,65.29c-42.73-7.3-62.66-67.82-67.47-84.87l2.44,65.52s1.22,5.22-8.26,5.16l-93.94,3.61s-7,0-7.22-15c0-4.36-.16-51.54-.41-122.25a40.12,40.12,0,0,1-1.24,4.5c-2.07,34.37-22.22,76-37.71,82.91-43.74,15.49-68.9-39.87-102.19-104.51S1239,660.65,1239,660.65h0a20.88,20.88,0,0,0-4.63-1.91s-45.19,74.78-25.58,134.65c21.16,80.51,70.58,128.49,74.84,193.55,4.65,71-18.54,141.72-33.55,199.22-15.22,58.32-5.16,265.28,183.17,285.21,70.2-2.18,137.72-11.61,149.22-16.87C1608.19,1444.59,1655.71,1430.24,1682.29,1389Z" transform="translate(-1156.3 314.23)" />
		<path class="cls-3" d="M1373.9,952.87l93.94-3.61c9.48.06,8.26-5.16,8.26-5.16l-2.44-65.52L1442.3,34.67h-78.82s1.93,534,2.79,780.94c.25,70.73.41,117.93.41,122.29C1366.9,952.87,1373.9,952.87,1373.9,952.87Z" transform="translate(-1156.3 314.23)" />
	</g>
</svg>
